<svg xmlns="http://www.w3.org/2000/svg" viewBox="0 0 500 500"><defs><style>.cls-1{fill:#9d3b54;}.cls-2{fill:#efcd63;}.cls-3{fill:#e17454;}.cls-4,.cls-5{fill:#78b0fc;}.cls-5{fill-rule:evenodd;}</style></defs><title>HealthPro</title><g id="Layer_1" data-name="Layer 1"><circle class="cls-1" cx="253.77" cy="105.78" r="54.41"/><path class="cls-1" d="M125.93,315.87s-19.23-26.8-6.05-60.52,51.23-41.49,75-36.31,36.24,16.72,42.87,28.39,5.18,13.25,9.07,15,9.08,1,11.53-1.58,4.47-7.21-.43-16.57S237.6,209.1,202.3,201s-62.68,4.76-76.51,15.71-26.51,30.69-29.39,54.9,8.29,47.85,11.38,52.44,5.15,8.79,13.94,5.62S125.93,315.87,125.93,315.87Z"/><path class="cls-2" d="M381.34,315.87s19.24-26.8,6.05-60.52-51.22-41.49-75-36.31-36.23,16.72-42.86,28.39-5.19,13.25-9.08,15-9.08,1-11.53-1.58-4.46-7.21.44-16.57S269.67,209.1,305,201s62.68,4.76,76.51,15.71,26.52,30.69,29.4,54.9-8.3,47.85-11.38,52.44-5.16,8.79-13.95,5.62S381.34,315.87,381.34,315.87Z"/><path class="cls-3" d="M282.87,457h0a8.12,8.12,0,0,1-1.2-11.4s38.62-46.95,51.61-63c12.08-15,47.23-60.92,47.23-60.92a8.13,8.13,0,0,1,11.4-1.2h0a8.12,8.12,0,0,1,1.2,11.4s-35.13,45.93-47.2,60.88c-13,16.11-51.65,63.09-51.65,63.09A8.12,8.12,0,0,1,282.87,457Z"/><circle class="cls-4" cx="253.77" cy="455.31" r="16.94"/><path class="cls-5" d="M253.78,435.46a20.45,20.45,0,1,0,20.42,20.47,20.47,20.47,0,0,0-20.42-20.47Z"/><path class="cls-5" d="M363.29,321.67a142.81,142.81,0,0,0-219,0,10.21,10.21,0,0,0,1.27,14.4,10.2,10.2,0,0,0,14.37-1.22,122.33,122.33,0,0,1,187.76,0A10.18,10.18,0,0,0,362,336.07a10.22,10.22,0,0,0,1.26-14.4Z"/><path class="cls-5" d="M253.78,328.3a102,102,0,0,0-78.22,36.52A10.22,10.22,0,0,0,191.19,378a81.52,81.52,0,0,1,125.16,0A10.22,10.22,0,1,0,332,364.82a102,102,0,0,0-78.2-36.52Z"/><path class="cls-5" d="M253.78,386.09A61.17,61.17,0,0,0,206.83,408a10.18,10.18,0,0,0,1.26,14.36,9.94,9.94,0,0,0,6.56,2.41,10.28,10.28,0,0,0,7.85-3.63,40.72,40.72,0,0,1,62.54,0,10.28,10.28,0,0,0,7.85,3.63,10,10,0,0,0,6.56-2.41A10.18,10.18,0,0,0,300.71,408a61.15,61.15,0,0,0-46.93-21.92Z"/></g></svg>